<svg width="25" height="24" viewBox="0 0 25 24" fill="none" xmlns="http://www.w3.org/2000/svg">
<g id="globe-02">
<path id="Icon" d="M12.75 2C15.2513 4.73835 16.6728 8.29203 16.75 12C16.6728 15.708 15.2513 19.2616 12.75 22M12.75 2C10.2487 4.73835 8.82725 8.29203 8.75 12C8.82725 15.708 10.2487 19.2616 12.75 22M12.75 2C7.22715 2 2.75 6.47715 2.75 12C2.75 17.5228 7.22715 22 12.75 22M12.75 2C18.2728 2 22.75 6.47715 22.75 12C22.75 17.5228 18.2728 22 12.75 22M3.25002 9H22.25M3.25 15H22.25" stroke="#EEEEEE" stroke-width="2" stroke-linecap="round" stroke-linejoin="round"/>
</g>
</svg>
